{"title":"Troop Beverly Hills 1989 DvDrip XviD AC3 2.0 greenbud1969","uid":10614118,"size":1496696986,"categoryP":"video","categoryS":"movies","magnet":"?xt=urn:btih:e0ae143a11693c9d68667f19dc561672e6b92fe1&amp;dn=Troop+Beverly+Hills+1989+DvDrip+XviD+AC3+2.0+greenbud1969&amp;tr=udp%3A%2F%2Ftracker.openbittorrent.com%3A80&amp;tr=udp%3A%2F%2Fopen.demonii.com%3A1337&amp;tr=udp%3A%2F%2Ftracker.coppersurfer.tk%3A6969&amp;tr=udp%3A%2F%2Fexodus.desync.com%3A6969","seeders":9,"leechers":2,"uploader":"greenbud1969","files":-1,"time":1406076160,"description":"General\nComplete name                            : Troop Beverly Hills 1989 DvDrip XviD AC3 2.0 greenbud1969\nFormat                                   : AVI\nFormat/Info                              : Audio Video Interleave\nFile size                                : 1.37 GiB\nDuration                                 : 1h 45mn\nOverall bit rate                         : 1 849 Kbps\nWriting application                      : VirtualDubMod 1.5.4.1 (build 2178/release)\nWriting library                          : VirtualDubMod build 2178/release\n\nVideo\nID                                       : 0\nFormat                                   : MPEG-4 Visual\nFormat profile                           : Advanced Simple@L5\nFormat settings, BVOP                    : 1\nFormat settings, QPel                    : No\nFormat settings, GMC                     : No warppoints\nFormat settings, Matrix                  : Custom\nCodec ID                                 : XVID\nCodec ID/Hint                            : XviD\nDuration                                 : 1h 45mn\nBit rate                                 : 1 650 Kbps\nWidth                                    : 592 pixels\nHeight                                   : 448 pixels\nDisplay aspect ratio                     : 4:3\nFrame rate                               : 23.976 fps\nColor space                              : YUV\nChroma subsampling                       : 4:2:0\nBit depth                                : 8 bits\nScan type                                : Progressive\nCompression mode                         : Lossy\nBits/(Pixel*Frame)                       : 0.259\nStream size                              : 1.22 GiB (89%)\nWriting library                          : XviD 64\n\nAudio\nID                                       : 1\nFormat                                   : AC-3\nFormat/Info                              : Audio Coding 3\nFormat profile                           : Dolby Digital\nMode extension                           : CM (complete main)\nFormat settings, Endianness              : Big\nCodec ID                                 : 2000\nDuration                                 : 1h 45mn\nBit rate mode                            : Constant\nBit rate                                 : 192 Kbps\nChannel(s)                               : 2 channels\nChannel positions                        : Front: L R\nSampling rate                            : 48.0 KHz\nBit depth                                : 16 bits\nCompression mode                         : Lossy\nStream size                              : 146 MiB (10%)\nAlignment                                : Split accross interleaves\nInterleave, duration                     : 96 ms (2.30 video frames)\nInterleave, preload duration             : 96 ms\nLanguage                                 : English\n\n\nIMDb Link:  &lt;a href=&quot; http://www.imdb.com/title/tt0098519/&quot; rel=&quot;nofollow&quot; target=&quot;_NEW&quot;&gt; http://www.imdb.com/title/tt0098519/&lt;/a&gt;\n\nShelley Long discovers that when the going gets tough, the tough go camping in Troop Beverly Hills, a comedy about lifestyles of the rich and outrageous. Flamboyantly wealthy Phyllis Nefler (Long) has everything money can buy-a drop-dead Beverly Hills mansion, a classic Rolls, furs, jewelry and designer gowns. The one thing she doesn't have is her husband Freddy (Craig T. Nelson), who's leaving her for good. Maybe. Determined to prove she's still the creative, energetic woman Freddy once loved, Phyllis throws luxury to the wind and becomes leader of her daughter's Wilderness Girls troop. But how much can this chic cookie take before she crumbles? Is saving her marriage really worth trading Gucci bags for sleeping bags-not to mention actually touching bugs? Featuring cameos by Robin Leach, Kareem Abdul-Jabbar, Pia Zadora, Frankie Avalon, Annette Funicello, Dr. Joyce Brothers and Cheech Marin, Shelley Long blazes new comic trails in this hilarious trail-by-campfire that leaves the wilderness wilder than ever.\n\n\nNotes\n\nIf your want to convert this movie or any of my other releases I recommend using ConvertXtoDVD or you can burn as a data disc with any programs such as CyberLink Power2Go, Roxio or Nero \n\n\nAll stand-alone divx players compatible\n\n\nSample Included\n\n\nThumbnail\n\n  &lt;a href=&quot;\nhttp://i.imgur.com/gS9zYpd.jpg&quot; rel=&quot;nofollow&quot; target=&quot;_NEW&quot;&gt;\nhttp://i.imgur.com/gS9zYpd.jpg&lt;/a&gt;\n\n\nGREETZ\n\n\nBlackjesus, Hive-CM8, ViP3R, THC, SANTi, CRYS, TODE, ViCKY, AQOS, EVO, playXD, LRT, FUM, AFG and respect to all pirate groups and encoders past and present. Sharing is caring.\n\n\nALSO IF YOU HAVE ANY REQUESTS DON'T HESITATE TO ASK. I MIGHT HAVE WHAT YOUR LOOKING FOR. YOU NEVER KNOW IT NEVER HURTS TO ASK. EMAIL ME AT greenbud1969 AT hotmail dot com OR LEAVE REQUESTS IN COMMENTS.","torrent":{"xt":"urn:btih:e0ae143a11693c9d68667f19dc561672e6b92fe1","amp;dn":"Troop+Beverly+Hills+1989+DvDrip+XviD+AC3+2.0+greenbud1969","amp;tr":["udp%3A%2F%2Ftracker.openbittorrent.com%3A80","udp%3A%2F%2Fopen.demonii.com%3A1337","udp%3A%2F%2Ftracker.coppersurfer.tk%3A6969","udp%3A%2F%2Fexodus.desync.com%3A6969"],"infoHash":"e0ae143a11693c9d68667f19dc561672e6b92fe1","infoHashBuffer":{"type":"Buffer","data":[224,174,20,58,17,105,60,157,104,102,127,25,220,86,22,114,230,185,47,225]},"announce":[],"urlList":[]}}